<?xml version="1.0" standalone="no"?><!DOCTYPE svg PUBLIC "-//W3C//DTD SVG 1.1//EN" "http://www.w3.org/Graphics/SVG/1.1/DTD/svg11.dtd"><svg t="1551852550952" class="icon" style="" viewBox="0 0 1024 1024" version="1.1" xmlns="http://www.w3.org/2000/svg" p-id="4532" xmlns:xlink="http://www.w3.org/1999/xlink" width="32" height="32"><defs><style type="text/css"></style></defs><path d="M512.001216 15.678248C237.414161 15.678248 14.819532 238.272877 14.819532 512.859932S237.414161 1010.0404 512.001216 1010.0404s497.180468-222.593412 497.180468-497.180468S786.588272 15.678248 512.001216 15.678248L512.001216 15.678248zM725.212006 661.614757c17.798278 17.803143 17.798278 46.657687 0 64.455965-17.798278 17.797061-46.657687 17.797061-64.455965 0l-148.754825-148.756042L363.240309 726.070722c-17.798278 17.797061-46.651605 17.797061-64.449883 0-17.803143-17.798278-17.803143-46.652822 0-64.455965l148.756042-148.754825L298.790426 364.10389c-17.803143-17.798278-17.803143-46.656471 0-64.454748 17.798278-17.798278 46.651605-17.798278 64.449883 0l148.760907 148.754825 148.754825-148.754825c17.798278-17.798278 46.657687-17.798278 64.455965 0 17.798278 17.798278 17.798278 46.656471 0 64.454748L576.455965 512.859932 725.212006 661.614757 725.212006 661.614757zM725.212006 661.614757" p-id="4533"></path></svg>