<?xml version="1.0" standalone="no"?><!DOCTYPE svg PUBLIC "-//W3C//DTD SVG 1.1//EN" "http://www.w3.org/Graphics/SVG/1.1/DTD/svg11.dtd"><svg t="1551165793464" class="icon" style="" viewBox="0 0 1089 1024" version="1.1" xmlns="http://www.w3.org/2000/svg" p-id="9016" xmlns:xlink="http://www.w3.org/1999/xlink" width="136.125" height="128"><defs><style type="text/css"></style></defs><path d="M955.09442 0H134.232437A134.232437 134.232437 0 0 0 0 134.232437v563.618529c0 74.122023 60.110413 134.232437 134.232437 134.232436h218.484066l191.916597 191.916598 191.916598-191.916598h218.484066a134.232437 134.232437 0 0 0 134.232437-134.232436V134.232437A134.171781 134.171781 0 0 0 955.09442 0z" fill="#00B9EF" p-id="9017"></path><path d="M804.970027 414.282668m-73.940054 0a73.940054 73.940054 0 1 0 147.880109 0 73.940054 73.940054 0 1 0-147.880109 0Z" fill="#FFFFFF" p-id="9018"></path><path d="M544.6331 414.282668m-73.940054 0a73.940054 73.940054 0 1 0 147.880109 0 73.940054 73.940054 0 1 0-147.880109 0Z" fill="#FFFFFF" p-id="9019"></path><path d="M284.35683 414.282668m-73.940055 0a73.940054 73.940054 0 1 0 147.880109 0 73.940054 73.940054 0 1 0-147.880109 0Z" fill="#FFFFFF" p-id="9020"></path></svg>