<?xml version="1.0" standalone="no"?><!DOCTYPE svg PUBLIC "-//W3C//DTD SVG 1.1//EN" "http://www.w3.org/Graphics/SVG/1.1/DTD/svg11.dtd"><svg t="1551232457712" class="icon" style="" viewBox="0 0 1025 1024" version="1.1" xmlns="http://www.w3.org/2000/svg" p-id="13858" xmlns:xlink="http://www.w3.org/1999/xlink" width="128.125" height="128"><defs><style type="text/css"></style></defs><path d="M797.089 924.287a26.183 26.183 0 0 1-19.22-8.395L645.458 772.89h-543.98c-36.993 0-67.089-30.095-67.089-67.089V166.933c0-38.246 31.202-67.089 72.578-67.089H925.36c32.813 0 61.599 31.35 61.599 67.089v538.868c0 36.993-30.095 67.089-67.089 67.089h-96.606v125.213a26.186 26.186 0 0 1-26.176 26.185z m-690.12-772.073c-12.278 0-20.21 5.778-20.21 14.72v538.868c0 8.117 6.604 14.72 14.72 14.72h555.422a26.185 26.185 0 0 1 19.213 8.394l94.784 102.367v-84.577c0-14.462 11.723-26.184 26.184-26.184h122.789c8.117 0 14.72-6.604 14.72-14.72V166.934c0-8.569-6.958-14.305-9.353-14.72H106.969z" p-id="13859"></path><path d="M510.995 400.508c-24.36 0-44.09 19.771-44.09 44.09s19.729 44.09 44.09 44.09 44.09-19.729 44.09-44.09c0-24.319-19.729-44.09-44.09-44.09zM687.393 400.508c-24.36 0-44.09 19.771-44.09 44.09s19.729 44.09 44.09 44.09 44.09-19.729 44.09-44.09c0-24.319-19.729-44.09-44.09-44.09zM335.458 400.508c-24.36 0-44.09 19.771-44.09 44.09s19.729 44.09 44.09 44.09c24.36 0 44.09-19.729 44.09-44.09-0.001-24.319-19.729-44.09-44.09-44.09z" p-id="13860"></path></svg>