<?xml version="1.0" standalone="no"?><!DOCTYPE svg PUBLIC "-//W3C//DTD SVG 1.1//EN" "http://www.w3.org/Graphics/SVG/1.1/DTD/svg11.dtd"><svg t="1551165709393" class="icon" style="" viewBox="0 0 1024 1024" version="1.1" xmlns="http://www.w3.org/2000/svg" p-id="3416" xmlns:xlink="http://www.w3.org/1999/xlink" width="128" height="128"><defs><style type="text/css"></style></defs><path d="M512 512m-512 0a512 512 0 1 0 1024 0 512 512 0 1 0-1024 0Z" fill="#13DBB3" p-id="3417"></path><path d="M728.098074 806.108581H276.175131c-43.936953 0-79.803853-35.8669-79.803853-79.803852V395.432574c0-43.936953 35.8669-79.803853 79.803853-79.803852h69.940456c10.76007 0 18.830123 8.966725 18.830122 18.830122s-8.966725 18.830123-18.830122 18.830123h-69.940456c-23.313485 0-41.246935 18.830123-41.246935 41.246935v331.768827c0 23.313485 18.830123 41.246935 41.246935 41.246935h451.922943c23.313485 0 41.246935-18.830123 41.246935-41.246935V625.877408c0-10.76007 8.966725-18.830123 18.830122-18.830123s18.830123 8.966725 18.830123 18.830123V726.304729c0.896673 43.936953-34.970228 79.803853-78.90718 79.803852z" fill="#FFFFFF" p-id="3418"></path><path d="M470.753065 685.954466h-0.896673c-10.76007-0.896673-18.830123-9.863398-17.93345-19.726795 0-3.58669 20.623468-338.942207 336.252189-349.702277 10.76007-0.896673 19.726795 8.070053 19.726795 17.93345 0 10.76007-8.070053 19.726795-17.93345 19.726795-280.658494 9.863398-298.591944 301.281961-299.488616 313.835377-0.896673 9.863398-9.863398 17.93345-19.726795 17.93345z" fill="#FFFFFF" p-id="3419"></path><path d="M706.577933 500.343257c-3.58669 0-7.17338-0.896673-10.76007-2.690017-8.966725-5.380035-11.656743-17.93345-5.380035-26.003503l90.563923-138.087565-147.950963-79.803853c-8.966725-5.380035-12.553415-16.140105-8.070052-26.003503 5.380035-8.966725 16.140105-12.553415 26.003502-8.070052l165.884413 89.66725c4.483363 2.690018 8.070053 7.17338 9.863398 11.656743s0 10.76007-2.690017 15.243432L722.718039 491.376532c-3.58669 5.380035-9.863398 8.966725-16.140106 8.966725z" fill="#FFFFFF" p-id="3420"></path></svg>