<?xml version="1.0" standalone="no"?><!DOCTYPE svg PUBLIC "-//W3C//DTD SVG 1.1//EN" "http://www.w3.org/Graphics/SVG/1.1/DTD/svg11.dtd"><svg t="1551232419859" class="icon" style="" viewBox="0 0 1024 1024" version="1.1" xmlns="http://www.w3.org/2000/svg" p-id="12997" xmlns:xlink="http://www.w3.org/1999/xlink" width="128" height="128"><defs><style type="text/css"></style></defs><path d="M861.62619 809.953424c-0.498349 16.571387 10.39063 48.62332-41.844953 48.62332 0 0-498.125019 1.685382-664.682096 0-17.156717-0.172938-42.19083-3.124148-41.999472-37.907279L113.099668 352.668473c-0.191358-26.737914 18.905544-30.460695 35.859647-30.745173 45.813327-0.768501 180.241724 0 180.241724 0l52.236607-45.067338L120.263821 276.855962c-29.636935 0-52.236607 23.257657-52.236607 52.230467L67.875764 851.310261c0 28.97281 24.022065 52.538482 53.660023 52.538482l730.01495-0.199544c29.581676 0 52.233537-23.260727 52.233537-52.23456L903.784275 485.784994l-42.000496 52.231491C861.783779 538.016485 861.62619 809.9524 861.62619 809.953424M950.001807 327.199456 686.425263 123.472902c-4.842275-3.722781-11.270672-4.334716-16.72693-1.731431-5.407139 2.647288-8.87921 8.107639-8.87921 14.126714l0 122.010601c-100.034121 3.011584-180.116881 41.115338-238.167902 100.896766-103.496982 106.352001-93.345805 261.981213-93.093049 268.507847 0.254803 8.367558 7.039309 14.994476 15.458033 15.202206l0.35304 0c8.263181 0 15.151041-6.32709 15.815166-14.539105 0.611936-8.519007 13.466683-205.565432 299.635736-212.553576l0 127.982604c0 5.968933 3.472071 11.479426 8.87921 14.126714 5.456258 2.655474 11.93582 1.99135 16.72693-1.731431l263.575521-203.725531c3.823064-2.959396 6.118336-7.550961 6.118336-12.446448C956.120142 334.79749 953.825894 330.21104 950.001807 327.199456M692.498573 511.186473 692.498573 399.430403c0-8.670456-7.088428-15.765024-15.862238-15.765024-168.644618 0-251.076884 61.976416-297.189015 123.186377 12.85577-41.875653 28.770196-87.990854 66.008234-126.242987 54.887988-56.465923 132.730735-91.509997 231.180781-91.509997 8.77381 0 15.862238-7.039309 15.862238-15.710789L692.498573 168.10329l221.945461 171.49452L692.498573 511.186473z" p-id="12998"></path></svg>