<?xml version="1.0" standalone="no"?><!DOCTYPE svg PUBLIC "-//W3C//DTD SVG 1.1//EN" "http://www.w3.org/Graphics/SVG/1.1/DTD/svg11.dtd"><svg t="1551689179298" class="icon" style="" viewBox="0 0 1024 1024" version="1.1" xmlns="http://www.w3.org/2000/svg" p-id="6293" xmlns:xlink="http://www.w3.org/1999/xlink" width="128" height="128"><defs><style type="text/css"></style></defs><path d="M429.3 816.3c-29.9 8.1-58.2-8.5-102-36.1l-0.7-0.4L48.4 546.6c-21.5-18-24.4-50.2-6.4-71.8 6.7-8.1 15.7-13.8 25.8-16.5 16.1-4.3 33.3-0.5 46 10.1L392.2 701c5 4.1 11.7 5.6 17.9 3.9 3.9-1.1 7.4-3.3 10-6.4l483.7-578.9c6.7-8.1 15.7-13.8 25.8-16.5 16-4.3 33.2-0.5 46 10.1 21.6 18 24.5 50.2 6.4 71.8L498.3 764c-27.6 29-47.5 46.5-69 52.3z" fill="#000000" p-id="6294"></path></svg>