<?xml version="1.0" standalone="no"?><!DOCTYPE svg PUBLIC "-//W3C//DTD SVG 1.1//EN" "http://www.w3.org/Graphics/SVG/1.1/DTD/svg11.dtd"><svg t="1551232435409" class="icon" style="" viewBox="0 0 1024 1024" version="1.1" xmlns="http://www.w3.org/2000/svg" p-id="13118" xmlns:xlink="http://www.w3.org/1999/xlink" width="128" height="128"><defs><style type="text/css"></style></defs><path d="M414.322 575.858l249.173 152.576a142.222 142.222 0 1 1-29.468 48.64L384.512 624.299a170.667 170.667 0 1 1 0.398-224.143l249.458-152.32a142.222 142.222 0 1 1 29.81 48.441L414.549 448.74c7.823 19.54 12.118 40.903 12.118 63.26 0 22.585-4.38 44.117-12.345 63.858zM768 284.444a85.333 85.333 0 1 0 0-170.666 85.333 85.333 0 0 0 0 170.666z m0 625.778a85.333 85.333 0 1 0 0-170.666 85.333 85.333 0 0 0 0 170.666zM256 625.778a113.778 113.778 0 1 0 0-227.556 113.778 113.778 0 0 0 0 227.556z" p-id="13119"></path></svg>